<svg width="100" height="100" viewBox="0 0 100 100" fill="none" xmlns="http://www.w3.org/2000/svg">
<path fill-rule="evenodd" clip-rule="evenodd" d="M22 14C17.5817 14 14 17.5817 14 22V78C14 82.4183 17.5817 86 22 86H78C82.4183 86 86 82.4183 86 78V22C86 17.5817 82.4183 14 78 14H22ZM50 30C38.9543 30 30 38.9543 30 50C30 61.0457 38.9543 70 50 70C61.0457 70 70 61.0457 70 50C70 38.9543 61.0457 30 50 30ZM50 60C44.4772 60 40 55.5228 40 50C40 44.4772 44.4772 40 50 40C55.5228 40 60 44.4772 60 50C60 55.5228 55.5228 60 50 60ZM78 26C78 28.2091 76.2091 30 74 30C71.7909 30 70 28.2091 70 26C70 23.7909 71.7909 22 74 22C76.2091 22 78 23.7909 78 26Z" fill="#007AFF"/>
</svg>
